<?xml version="1.0" encoding="utf-8"?>
<!-- Generator: Adobe Illustrator 23.0.1, SVG Export Plug-In . SVG Version: 6.00 Build 0)  -->
<svg version="1.1" id="Layer_1" xmlns="http://www.w3.org/2000/svg" xmlns:xlink="http://www.w3.org/1999/xlink" x="0px" y="0px"
	 viewBox="0 0 1000 1000" style="enable-background:new 0 0 1000 1000;" xml:space="preserve">
<style type="text/css">
	.st0{clip-path:url(#SVGID_2_);fill:#37383F;}
	.st1{clip-path:url(#SVGID_4_);fill:url(#SVGID_5_);}
	.st2{clip-path:url(#SVGID_7_);fill:url(#SVGID_8_);}
</style>
<g>
	<defs>
		<rect id="SVGID_1_" width="1000" height="1000"/>
	</defs>
	<clipPath id="SVGID_2_">
		<use xlink:href="#SVGID_1_"  style="overflow:visible;"/>
	</clipPath>
	<path class="st0" d="M168.55,692.49c-12.12,0-22.44-4.2-30.96-12.6c-8.4-8.52-12.6-18.84-12.6-31.08s4.2-22.56,12.6-30.96
		c8.52-8.52,18.84-12.72,30.96-12.72c12.12,0,22.44,4.2,30.95,12.72c8.52,8.4,12.72,18.72,12.72,30.96s-4.2,22.56-12.72,31.08
		C190.99,688.29,180.67,692.49,168.55,692.49 M168.55,676.29c7.68,0,14.16-2.52,19.32-7.68c5.16-5.16,7.8-11.76,7.8-19.8
		s-2.64-14.64-7.8-19.8c-5.16-5.16-11.64-7.8-19.32-7.8c-7.68,0-14.16,2.64-19.32,7.8c-5.16,5.16-7.8,11.76-7.8,19.8
		s2.64,14.64,7.8,19.8C154.4,673.77,160.87,676.29,168.55,676.29"/>
	<path class="st0" d="M281.41,638.37c5.76,6.12,8.64,13.56,8.64,22.44c0,8.88-2.88,16.44-8.64,22.56
		c-5.64,6.12-12.6,9.12-20.64,9.12c-8.4,0-14.88-2.88-19.44-8.76v31.07h-15.48v-83.99h15.48v7.08c4.56-5.88,11.04-8.76,19.44-8.76
		C268.81,629.14,275.77,632.26,281.41,638.37 M257.89,677.73c4.8,0,8.76-1.56,11.88-4.68c3.24-3.24,4.8-7.32,4.8-12.24
		c0-4.92-1.56-9-4.8-12.12c-3.12-3.24-7.08-4.8-11.88-4.8c-4.8,0-8.76,1.56-11.88,4.8c-3.12,3.12-4.68,7.2-4.68,12.12
		c0,4.92,1.56,9,4.68,12.24C249.13,676.17,253.09,677.73,257.89,677.73"/>
	<path class="st0" d="M316.04,667.17c2.04,7.56,7.68,11.28,16.92,11.28c5.88,0,10.44-2.04,13.44-6l12.48,7.2
		c-5.88,8.52-14.64,12.84-26.16,12.84c-9.96,0-17.88-3-23.88-9s-9-13.56-9-22.68c0-9,3-16.56,8.88-22.56
		c5.88-6.12,13.56-9.12,22.8-9.12c8.76,0,16.08,3,21.72,9.12c5.76,6.12,8.64,13.56,8.64,22.56c0,2.04-0.24,4.08-0.6,6.36H316.04z
		 M346.39,655.17c-1.8-8.16-7.8-12.12-14.88-12.12c-8.28,0-13.92,4.44-15.72,12.12H346.39z"/>
	<path class="st0" d="M424.3,635.73c4.32,4.44,6.48,10.44,6.48,18.24v36.84H415.3v-34.92c0-8.04-4.68-12.36-11.88-12.36
		c-8.04,0-13.2,4.92-13.2,14.88v32.4h-15.48v-59.99h15.48v6.72c3.72-5.64,9.72-8.4,17.88-8.4C414.7,629.14,420.1,631.3,424.3,635.73
		"/>
	<path class="st0" d="M500.97,690.81l-5.04-15.12h-33.48l-5.04,15.12h-17.88l29.4-83.99h20.52l29.52,83.99H500.97z M467.74,660.21
		h23.04l-11.52-34.31L467.74,660.21z"/>
	<path class="st0" d="M567.11,630.82h15.48v59.99h-15.48v-6.72c-3.72,5.64-9.72,8.4-17.88,8.4c-6.6,0-12-2.16-16.32-6.6
		c-4.2-4.44-6.36-10.44-6.36-18.24v-36.83h15.48v34.92c0,8.04,4.68,12.36,11.88,12.36c8.04,0,13.2-4.92,13.2-14.88V630.82z"/>
	<path class="st0" d="M644.23,606.82h15.48v83.99h-15.48v-7.08c-4.56,5.88-11.04,8.76-19.44,8.76c-8.04,0-15-3-20.76-9.12
		c-5.64-6.12-8.52-13.68-8.52-22.56c0-8.88,2.88-16.32,8.52-22.44c5.76-6.12,12.72-9.24,20.76-9.24c8.4,0,14.88,2.88,19.44,8.76
		V606.82z M627.68,677.73c4.8,0,8.76-1.56,11.88-4.68c3.12-3.24,4.68-7.32,4.68-12.24c0-4.92-1.56-9-4.68-12.12
		c-3.12-3.24-7.08-4.8-11.88-4.8c-4.8,0-8.76,1.56-12,4.8c-3.12,3.12-4.68,7.2-4.68,12.12c0,4.92,1.56,9,4.68,12.24
		C618.92,676.17,622.88,677.73,627.68,677.73"/>
	<path class="st0" d="M674.1,614.14c0-5.16,4.32-9.6,9.48-9.6c5.28,0,9.6,4.44,9.6,9.6c0,5.16-4.32,9.48-9.6,9.48
		C678.42,623.62,674.1,619.3,674.1,614.14 M675.9,630.82h15.48v59.99H675.9V630.82z"/>
	<path class="st0" d="M762.92,638.37c5.76,6.12,8.64,13.56,8.64,22.44c0,8.88-2.88,16.44-8.64,22.56
		c-5.64,6.12-12.6,9.12-20.64,9.12c-8.4,0-14.88-2.88-19.44-8.76v7.08h-15.48v-83.99h15.48v31.08c4.56-5.88,11.04-8.76,19.44-8.76
		C750.32,629.14,757.28,632.26,762.92,638.37 M739.41,677.73c4.8,0,8.76-1.56,11.88-4.68c3.24-3.24,4.8-7.32,4.8-12.24
		c0-4.92-1.56-9-4.8-12.12c-3.12-3.24-7.08-4.8-11.88-4.8c-4.8,0-8.76,1.56-11.88,4.8c-3.12,3.12-4.68,7.2-4.68,12.12
		c0,4.92,1.56,9,4.68,12.24C730.65,676.17,734.61,677.73,739.41,677.73"/>
	<rect x="784.5" y="603.22" class="st0" width="15.48" height="87.59"/>
	<path class="st0" d="M829.17,667.17c2.04,7.56,7.68,11.28,16.92,11.28c5.88,0,10.44-2.04,13.44-6l12.48,7.2
		c-5.88,8.52-14.64,12.84-26.16,12.84c-9.96,0-17.88-3-23.88-9c-6-6-9-13.56-9-22.68c0-9,3-16.56,8.88-22.56
		c5.88-6.12,13.56-9.12,22.8-9.12c8.76,0,16.08,3,21.72,9.12c5.76,6.12,8.64,13.56,8.64,22.56c0,2.04-0.24,4.08-0.6,6.36H829.17z
		 M859.52,655.17c-1.8-8.16-7.8-12.12-14.88-12.12c-8.28,0-13.92,4.44-15.72,12.12H859.52z"/>
</g>
<g>
	<defs>
		<path id="SVGID_3_" d="M403.69,352.11c-3,0-5.42,2.43-5.42,5.43v42.49c10.56,1.65,21.15,4.14,31.67,7.45v-49.94
			c0-3-2.43-5.43-5.43-5.43H403.69z M575.48,352.11c-3,0-5.42,2.43-5.42,5.43v49.94c10.52-3.3,21.11-5.8,31.67-7.45v-42.49
			c0-3-2.43-5.43-5.42-5.43H575.48z M618.43,334.63c-3,0-5.42,2.43-5.42,5.42v58.54c6.3-0.62,12.58-0.95,18.82-0.95
			c4.3,0,8.62,0.16,12.85,0.46v-58.05c0-3-2.43-5.42-5.43-5.42H618.43z M360.74,320.16c-3,0-5.42,2.43-5.42,5.43v72.52
			c4.23-0.3,8.55-0.46,12.85-0.46c6.24,0,12.52,0.33,18.82,0.95v-73.01c0-3-2.43-5.43-5.43-5.43H360.74z M489.59,320.16
			c-3,0-5.43,2.43-5.43,5.43v106.6c5.36,3.25,10.64,6.71,15.84,10.39c5.2-3.68,10.48-7.14,15.84-10.39v-106.6
			c0-3-2.43-5.43-5.43-5.43H489.59z M532.54,299.36c-3,0-5.42,2.43-5.42,5.42v120.94c10.37-5.61,20.97-10.41,31.67-14.38V304.78
			c0-3-2.43-5.42-5.42-5.42H532.54z M446.64,285.2c-3,0-5.43,2.43-5.43,5.42v120.72c10.71,3.97,21.3,8.78,31.67,14.38v-135.1
			c0-3-2.43-5.42-5.43-5.42H446.64z"/>
	</defs>
	<clipPath id="SVGID_4_">
		<use xlink:href="#SVGID_3_"  style="overflow:visible;"/>
	</clipPath>
	
		<linearGradient id="SVGID_5_" gradientUnits="userSpaceOnUse" x1="0" y1="1000" x2="1" y2="1000" gradientTransform="matrix(0 -161.3954 -161.3954 0 161895.375 480.4539)">
		<stop  offset="0" style="stop-color:#EA6424"/>
		<stop  offset="0.0613" style="stop-color:#EB6C24"/>
		<stop  offset="0.5094" style="stop-color:#F19B20"/>
		<stop  offset="0.8341" style="stop-color:#F5B919"/>
		<stop  offset="1" style="stop-color:#F7C514"/>
	</linearGradient>
	<rect x="355.32" y="285.2" class="st1" width="289.36" height="157.37"/>
</g>
<g>
	<defs>
		<path id="SVGID_6_" d="M500,456c-46.32-34.86-98.36-50.53-144.68-47.02v120.36c0,6.19,5.17,11.09,11.36,10.84
			c41.31-1.67,86.31,11.37,127.29,39.13c3.64,2.46,8.43,2.46,12.06,0c40.98-27.76,85.97-40.8,127.29-39.13
			c6.19,0.25,11.36-4.64,11.36-10.84V408.98c-4.24-0.32-8.53-0.48-12.85-0.48C588.88,408.5,542.08,424.33,500,456"/>
	</defs>
	<clipPath id="SVGID_7_">
		<use xlink:href="#SVGID_6_"  style="overflow:visible;"/>
	</clipPath>
	
		<linearGradient id="SVGID_8_" gradientUnits="userSpaceOnUse" x1="0" y1="1000" x2="1" y2="1000" gradientTransform="matrix(0 -149.7211 -149.7211 0 150221.0625 582.652)">
		<stop  offset="0" style="stop-color:#3A1E68"/>
		<stop  offset="0.25" style="stop-color:#422873"/>
		<stop  offset="0.7582" style="stop-color:#584290"/>
		<stop  offset="1" style="stop-color:#6450A1"/>
	</linearGradient>
	<rect x="355.32" y="405.47" class="st2" width="289.36" height="176.3"/>
</g>
</svg>
